<svg width="58" height="58" viewBox="0 0 58 58" fill="none" xmlns="http://www.w3.org/2000/svg">
<path d="M29.0007 53.1667C15.6534 53.1667 4.83398 42.3473 4.83398 29C4.83398 15.6528 15.6534 4.83337 29.0007 4.83337C42.3479 4.83337 53.1673 15.6528 53.1673 29C53.1673 42.3473 42.3479 53.1667 29.0007 53.1667ZM16.9487 44.1187C20.3696 46.8536 24.6209 48.3403 29.0007 48.3334C33.7615 48.3334 38.1187 46.6127 41.4876 43.761C39.9137 42.1461 38.0319 40.8632 35.9535 39.9882C33.8751 39.1131 31.6424 38.6638 29.3873 38.6667C27.0494 38.664 24.7365 39.1473 22.5952 40.0858C20.4539 41.0243 18.5311 42.3977 16.9487 44.1187ZM13.5727 40.6484C15.6037 38.4929 18.0548 36.7762 20.7747 35.6041C23.4945 34.432 26.4256 33.8294 29.3873 33.8334C32.243 33.8297 35.0712 34.3901 37.7097 35.4825C40.3482 36.5748 42.7449 38.1777 44.7621 40.1989C46.831 37.2871 48.0528 33.8591 48.2919 30.2952C48.5309 26.7312 47.778 23.1708 46.1167 20.0087C44.4553 16.8467 41.9504 14.2067 38.8799 12.3817C35.8094 10.5567 32.2933 9.61798 28.7218 9.66973C25.1502 9.72148 21.6628 10.7617 18.6465 12.6749C15.6302 14.5881 13.2028 17.2995 11.6337 20.5084C10.0647 23.7172 9.41525 27.298 9.7575 30.8535C10.0997 34.409 11.4203 37.8002 13.5727 40.6508V40.6484ZM29.0007 31.4167C26.4369 31.4167 23.9781 30.3983 22.1653 28.5854C20.3524 26.7726 19.334 24.3138 19.334 21.75C19.334 19.1863 20.3524 16.7275 22.1653 14.9147C23.9781 13.1018 26.4369 12.0834 29.0007 12.0834C31.5644 12.0834 34.0232 13.1018 35.836 14.9147C37.6489 16.7275 38.6673 19.1863 38.6673 21.75C38.6673 24.3138 37.6489 26.7726 35.836 28.5854C34.0232 30.3983 31.5644 31.4167 29.0007 31.4167ZM29.0007 26.5834C30.2825 26.5834 31.5119 26.0741 32.4183 25.1677C33.3248 24.2613 33.834 23.0319 33.834 21.75C33.834 20.4682 33.3248 19.2388 32.4183 18.3324C31.5119 17.4259 30.2825 16.9167 29.0007 16.9167C27.7188 16.9167 26.4894 17.4259 25.583 18.3324C24.6765 19.2388 24.1673 20.4682 24.1673 21.75C24.1673 23.0319 24.6765 24.2613 25.583 25.1677C26.4894 26.0741 27.7188 26.5834 29.0007 26.5834Z" fill="black"/>
</svg>
