<svg width="60" height="60" viewBox="0 0 60 60" fill="none" xmlns="http://www.w3.org/2000/svg">
<path d="M29.9997 55.0001C27.0449 55.0001 24.1191 54.4181 21.3893 53.2873C18.6595 52.1566 16.1791 50.4993 14.0898 48.41C12.0005 46.3206 10.3431 43.8403 9.2124 41.1104C8.08167 38.3806 7.49969 35.4548 7.49969 32.5001C7.49969 29.5453 8.08167 26.6195 9.2124 23.8897C10.3431 21.1599 12.0005 18.6795 14.0898 16.5902C16.1791 14.5008 18.6595 12.8435 21.3893 11.7128C24.1191 10.582 27.0449 10.0001 29.9997 10.0001C35.9671 10.0001 41.69 12.3706 45.9096 16.5902C50.1292 20.8097 52.4997 26.5327 52.4997 32.5001C52.4997 38.4674 50.1292 44.1904 45.9096 48.41C41.69 52.6295 35.9671 55.0001 29.9997 55.0001ZM29.9997 50.0001C32.2978 50.0001 34.5735 49.5474 36.6966 48.6679C38.8198 47.7885 40.749 46.4994 42.3741 44.8744C43.9991 43.2494 45.2881 41.3202 46.1676 39.197C47.047 37.0738 47.4997 34.7982 47.4997 32.5001C47.4997 30.2019 47.047 27.9263 46.1676 25.8031C45.2881 23.6799 43.9991 21.7507 42.3741 20.1257C40.749 18.5007 38.8198 17.2116 36.6966 16.3322C34.5735 15.4527 32.2978 15.0001 29.9997 15.0001C25.3584 15.0001 20.9072 16.8438 17.6253 20.1257C14.3434 23.4076 12.4997 27.8588 12.4997 32.5001C12.4997 37.1413 14.3434 41.5925 17.6253 44.8744C20.9072 48.1563 25.3584 50.0001 29.9997 50.0001ZM32.4997 32.5001H39.9997V37.5001H27.4997V20.0001H32.4997V32.5001ZM4.36719 15.7051L13.2047 6.86755L16.7422 10.4026L7.89969 19.2426L4.36719 15.7051ZM46.7922 6.86755L55.6322 15.7051L52.0972 19.2426L43.2572 10.4026L46.7947 6.86755H46.7922Z" fill="black"/>
</svg>
