<svg width="60" height="60" viewBox="0 0 60 60" fill="none" xmlns="http://www.w3.org/2000/svg">
<path d="M54.082 16.6172C53.2966 14.7987 52.1642 13.1508 50.748 11.7657C49.3308 10.3764 47.6599 9.27245 45.8262 8.51371C43.9247 7.72383 41.8852 7.31952 39.8262 7.32426C36.9375 7.32426 34.1191 8.11528 31.6699 9.60942C31.084 9.96684 30.5273 10.3594 30 10.7872C29.4727 10.3594 28.916 9.96684 28.3301 9.60942C25.8809 8.11528 23.0625 7.32426 20.1738 7.32426C18.0937 7.32426 16.0781 7.7227 14.1738 8.51371C12.334 9.27543 10.6758 10.3711 9.25195 11.7657C7.83396 13.1492 6.70124 14.7975 5.91797 16.6172C5.10352 18.5098 4.6875 20.5196 4.6875 22.5879C4.6875 24.5391 5.08594 26.5723 5.87695 28.6407C6.53906 30.3692 7.48828 32.1621 8.70117 33.9727C10.623 36.8379 13.2656 39.8262 16.5469 42.8555C21.9844 47.877 27.3691 51.3457 27.5977 51.4864L28.9863 52.377C29.6016 52.7696 30.3926 52.7696 31.0078 52.377L32.3965 51.4864C32.625 51.3399 38.0039 47.877 43.4473 42.8555C46.7285 39.8262 49.3711 36.8379 51.293 33.9727C52.5059 32.1621 53.4609 30.3692 54.1172 28.6407C54.9082 26.5723 55.3066 24.5391 55.3066 22.5879C55.3125 20.5196 54.8965 18.5098 54.082 16.6172ZM30 47.7422C30 47.7422 9.14062 34.377 9.14062 22.5879C9.14062 16.6172 14.0801 11.7774 20.1738 11.7774C24.457 11.7774 28.1719 14.168 30 17.6602C31.8281 14.168 35.543 11.7774 39.8262 11.7774C45.9199 11.7774 50.8594 16.6172 50.8594 22.5879C50.8594 34.377 30 47.7422 30 47.7422Z" fill="black"/>
</svg>
