<svg width="55" height="55" viewBox="0 0 55 55" fill="none" xmlns="http://www.w3.org/2000/svg">
<path d="M36.4313 34.5039C37.7311 33.8057 39.2189 33.4082 40.8034 33.4082H40.8087C40.9699 33.4082 41.0451 33.2148 40.9269 33.1074C39.2791 31.6286 37.3968 30.4343 35.3571 29.5732C35.3356 29.5625 35.3141 29.5571 35.2926 29.5464C38.6281 27.124 40.798 23.187 40.798 18.7451C40.798 11.3867 34.8468 5.4248 27.5045 5.4248C20.1622 5.4248 14.2164 11.3867 14.2164 18.7451C14.2164 23.187 16.3864 27.124 19.7272 29.5464C19.7057 29.5571 19.6842 29.5625 19.6627 29.5732C17.2619 30.5884 15.108 32.0439 13.255 33.9023C11.4127 35.7413 9.94596 37.9214 8.93666 40.3208C7.94361 42.6705 7.40768 45.1879 7.35756 47.7383C7.35612 47.7956 7.36618 47.8526 7.38713 47.906C7.40808 47.9594 7.4395 48.008 7.47955 48.0491C7.51959 48.0901 7.56744 48.1227 7.62029 48.145C7.67313 48.1673 7.7299 48.1787 7.78724 48.1787H11.0045C11.2355 48.1787 11.4288 47.9907 11.4342 47.7598C11.5416 43.6133 13.2013 39.73 16.1393 36.7866C19.174 33.7412 23.213 32.0654 27.5099 32.0654C30.5553 32.0654 33.4772 32.9087 35.9962 34.4878C36.0609 34.5285 36.1352 34.5514 36.2116 34.5542C36.288 34.557 36.3637 34.5397 36.4313 34.5039ZM27.5099 27.9834C25.0499 27.9834 22.735 27.022 20.9894 25.2764C20.1305 24.4197 19.4496 23.4016 18.986 22.2807C18.5223 21.1598 18.285 19.9582 18.2877 18.7451C18.2877 16.2798 19.2492 13.9595 20.9894 12.2139C22.7296 10.4683 25.0446 9.50684 27.5099 9.50684C29.9752 9.50684 32.2848 10.4683 34.0304 12.2139C34.8893 13.0705 35.5702 14.0886 36.0338 15.2095C36.4975 16.3305 36.7348 17.5321 36.7321 18.7451C36.7321 21.2104 35.7706 23.5308 34.0304 25.2764C32.2848 27.022 29.9699 27.9834 27.5099 27.9834ZM47.2648 40.7666H42.7531V36.2549C42.7531 36.0186 42.5597 35.8252 42.3234 35.8252H39.3156C39.0792 35.8252 38.8859 36.0186 38.8859 36.2549V40.7666H34.3742C34.1378 40.7666 33.9445 40.96 33.9445 41.1963V44.2041C33.9445 44.4404 34.1378 44.6338 34.3742 44.6338H38.8859V49.1455C38.8859 49.3818 39.0792 49.5752 39.3156 49.5752H42.3234C42.5597 49.5752 42.7531 49.3818 42.7531 49.1455V44.6338H47.2648C47.5011 44.6338 47.6945 44.4404 47.6945 44.2041V41.1963C47.6945 40.96 47.5011 40.7666 47.2648 40.7666Z" fill="black"/>
</svg>
