<svg width="55" height="55" viewBox="0 0 55 55" fill="none" xmlns="http://www.w3.org/2000/svg">
<path d="M48.8555 45.896L34.9067 31.9473C37.0713 29.1489 38.2422 25.7275 38.2422 22.1289C38.2422 17.8213 36.561 13.7822 33.521 10.7368C30.481 7.69141 26.4312 6.01562 22.1289 6.01562C17.8267 6.01562 13.7769 7.69678 10.7368 10.7368C7.69141 13.7769 6.01562 17.8213 6.01562 22.1289C6.01562 26.4312 7.69678 30.481 10.7368 33.521C13.7769 36.5664 17.8213 38.2422 22.1289 38.2422C25.7275 38.2422 29.1436 37.0713 31.9419 34.9121L45.8906 48.8555C45.9315 48.8964 45.9801 48.9289 46.0335 48.951C46.087 48.9732 46.1443 48.9846 46.2021 48.9846C46.26 48.9846 46.3173 48.9732 46.3708 48.951C46.4242 48.9289 46.4728 48.8964 46.5137 48.8555L48.8555 46.519C48.8964 46.4781 48.9289 46.4296 48.951 46.3761C48.9732 46.3227 48.9846 46.2654 48.9846 46.2075C48.9846 46.1497 48.9732 46.0924 48.951 46.0389C48.9289 45.9855 48.8964 45.9369 48.8555 45.896ZM30.6367 30.6367C28.3594 32.9087 25.3408 34.1602 22.1289 34.1602C18.917 34.1602 15.8984 32.9087 13.6211 30.6367C11.3491 28.3594 10.0977 25.3408 10.0977 22.1289C10.0977 18.917 11.3491 15.8931 13.6211 13.6211C15.8984 11.3491 18.917 10.0977 22.1289 10.0977C25.3408 10.0977 28.3647 11.3438 30.6367 13.6211C32.9087 15.8984 34.1602 18.917 34.1602 22.1289C34.1602 25.3408 32.9087 28.3647 30.6367 30.6367Z" fill="black"/>
</svg>
