<svg width="55" height="55" viewBox="0 0 55 55" fill="none" xmlns="http://www.w3.org/2000/svg">
<path d="M6.87565 6.875H48.1257C48.7334 6.875 49.3163 7.11644 49.7461 7.54621C50.1759 7.97598 50.4173 8.55888 50.4173 9.16667V45.8333C50.4173 46.4411 50.1759 47.024 49.7461 47.4538C49.3163 47.8836 48.7334 48.125 48.1257 48.125H6.87565C6.26786 48.125 5.68497 47.8836 5.2552 47.4538C4.82543 47.024 4.58398 46.4411 4.58398 45.8333V9.16667C4.58398 8.55888 4.82543 7.97598 5.2552 7.54621C5.68497 7.11644 6.26786 6.875 6.87565 6.875ZM9.16732 11.4583V43.5417H45.834V11.4583H9.16732ZM16.0423 29.7917H20.6257V38.9583H16.0423V29.7917ZM25.209 16.0417H29.7923V38.9583H25.209V16.0417ZM34.3757 22.9167H38.959V38.9583H34.3757V22.9167Z" fill="black"/>
</svg>
