<svg width="53" height="53" viewBox="0 0 53 53" fill="none" xmlns="http://www.w3.org/2000/svg">
<path fill-rule="evenodd" clip-rule="evenodd" d="M15.3928 31.9524C15.5467 31.7982 15.7295 31.6758 15.9307 31.5923C16.1319 31.5088 16.3476 31.4658 16.5655 31.4658C16.7833 31.4658 16.999 31.5088 17.2002 31.5923C17.4015 31.6758 17.5842 31.7982 17.7381 31.9524L26.503 40.7206L35.2678 31.9524C35.5788 31.6414 36.0006 31.4667 36.4405 31.4667C36.8803 31.4667 37.3021 31.6414 37.6131 31.9524C37.9241 32.2634 38.0988 32.6852 38.0988 33.125C38.0988 33.5649 37.9241 33.9867 37.6131 34.2977L27.6756 44.2352C27.5217 44.3894 27.339 44.5118 27.1377 44.5953C26.9365 44.6788 26.7208 44.7217 26.503 44.7217C26.2851 44.7217 26.0694 44.6788 25.8682 44.5953C25.667 44.5118 25.4842 44.3894 25.3303 44.2352L15.3928 34.2977C15.2386 34.1438 15.1162 33.961 15.0327 33.7598C14.9492 33.5586 14.9062 33.3429 14.9062 33.125C14.9062 32.9072 14.9492 32.6915 15.0327 32.4902C15.1162 32.289 15.2386 32.1063 15.3928 31.9524Z" fill="black"/>
<path fill-rule="evenodd" clip-rule="evenodd" d="M26.5 8.28125C26.9393 8.28125 27.3605 8.45575 27.6711 8.76635C27.9818 9.07696 28.1562 9.49824 28.1562 9.9375V39.75C28.1562 40.1893 27.9818 40.6105 27.6711 40.9211C27.3605 41.2318 26.9393 41.4062 26.5 41.4062C26.0607 41.4062 25.6395 41.2318 25.3289 40.9211C25.0182 40.6105 24.8438 40.1893 24.8438 39.75V9.9375C24.8438 9.49824 25.0182 9.07696 25.3289 8.76635C25.6395 8.45575 26.0607 8.28125 26.5 8.28125Z" fill="black"/>
</svg>
