<svg width="53" height="53" viewBox="0 0 53 53" fill="none" xmlns="http://www.w3.org/2000/svg">
<path fill-rule="evenodd" clip-rule="evenodd" d="M37.613 21.0505C37.4592 21.2048 37.2764 21.3271 37.0752 21.4106C36.874 21.4941 36.6583 21.5371 36.4404 21.5371C36.2225 21.5371 36.0068 21.4941 35.8056 21.4106C35.6044 21.3271 35.4216 21.2048 35.2678 21.0505L26.5029 12.2823L17.738 21.0505C17.427 21.3615 17.0052 21.5362 16.5654 21.5362C16.1256 21.5362 15.7038 21.3615 15.3928 21.0505C15.0818 20.7395 14.9071 20.3177 14.9071 19.8779C14.9071 19.4381 15.0818 19.0163 15.3928 18.7053L25.3303 8.76777C25.4841 8.61353 25.6669 8.49116 25.8681 8.40766C26.0693 8.32417 26.285 8.28119 26.5029 8.28119C26.7208 8.28119 26.9365 8.32417 27.1377 8.40766C27.3389 8.49116 27.5217 8.61353 27.6755 8.76777L37.613 18.7053C37.7673 18.8591 37.8896 19.0419 37.9731 19.2431C38.0566 19.4443 38.0996 19.66 38.0996 19.8779C38.0996 20.0958 38.0566 20.3115 37.9731 20.5127C37.8896 20.7139 37.7673 20.8967 37.613 21.0505Z" fill="black"/>
<path fill-rule="evenodd" clip-rule="evenodd" d="M26.5059 44.7217C26.0666 44.7217 25.6453 44.5472 25.3347 44.2366C25.0241 43.926 24.8496 43.5047 24.8496 43.0654L24.8496 13.2529C24.8496 12.8137 25.0241 12.3924 25.3347 12.0818C25.6453 11.7712 26.0666 11.5967 26.5059 11.5967C26.9451 11.5967 27.3664 11.7712 27.677 12.0818C27.9876 12.3924 28.1621 12.8137 28.1621 13.2529L28.1621 43.0654C28.1621 43.5047 27.9876 43.926 27.677 44.2366C27.3664 44.5472 26.9451 44.7217 26.5059 44.7217Z" fill="black"/>
</svg>
