<svg width="56" height="56" viewBox="0 0 56 56" fill="none" xmlns="http://www.w3.org/2000/svg">
<path d="M18.666 28C23.986 28 27.9994 23.9866 27.9994 18.6666C27.9994 13.3466 23.986 9.3333 18.666 9.3333C13.346 9.3333 9.33268 13.3466 9.33268 18.6666C9.33268 23.9866 13.346 28 18.666 28ZM18.666 14C21.4147 14 23.3327 15.918 23.3327 18.6666C23.3327 21.4153 21.4147 23.3333 18.666 23.3333C15.9173 23.3333 13.9993 21.4153 13.9993 18.6666C13.9993 15.918 15.9173 14 18.666 14ZM20.9993 30.3333H16.3327C9.89968 30.3333 4.66602 35.567 4.66602 42V44.3333H9.33268V42C9.33268 38.1406 12.4733 35 16.3327 35H20.9993C24.8587 35 27.9994 38.1406 27.9994 42V44.3333H32.666V42C32.666 35.567 27.4324 30.3333 20.9993 30.3333ZM42.8487 6.15063L39.5494 9.44997C42.6317 12.537 44.3327 16.639 44.3327 21C44.3327 25.361 42.6317 29.463 39.5494 32.55L42.8487 35.8493C46.8154 31.8803 48.9994 26.607 48.9994 21C48.9994 15.393 46.8154 10.1196 42.8487 6.15063Z" fill="black"/>
<path d="M36.2486 12.7495L32.9492 16.0535C34.2722 17.3718 35.0002 19.1288 35.0002 21.0002C35.0002 22.8715 34.2722 24.6285 32.9492 25.9468L36.2486 29.2508C38.4512 27.0482 39.6669 24.1198 39.6669 21.0002C39.6669 17.8805 38.4512 14.9522 36.2486 12.7495Z" fill="black"/>
</svg>
