<svg width="52" height="52" viewBox="0 0 52 52" fill="none" xmlns="http://www.w3.org/2000/svg">
<path d="M25.9993 4.33337C20.0258 4.33337 15.166 9.19321 15.166 15.1667V21.6667H12.9993C10.6095 21.6667 8.66602 23.6102 8.66602 26V43.3334C8.66602 45.7232 10.6095 47.6667 12.9993 47.6667H38.9993C41.3892 47.6667 43.3327 45.7232 43.3327 43.3334V26C43.3327 23.6102 41.3892 21.6667 38.9993 21.6667H36.8327V15.1667C36.8327 9.19321 31.9728 4.33337 25.9993 4.33337ZM38.9993 26L39.0037 43.3334H12.9993V26H38.9993ZM19.4993 21.6667V15.1667C19.4993 11.583 22.4157 8.66671 25.9993 8.66671C29.583 8.66671 32.4993 11.583 32.4993 15.1667V21.6667H19.4993Z" fill="black"/>
</svg>
