<svg width="55" height="55" viewBox="0 0 55 55" fill="none" xmlns="http://www.w3.org/2000/svg">
<path d="M38.959 6.87496H48.1257C48.7334 6.87496 49.3163 7.1164 49.7461 7.54617C50.1759 7.97594 50.4173 8.55884 50.4173 9.16663V45.8333C50.4173 46.4411 50.1759 47.024 49.7461 47.4537C49.3163 47.8835 48.7334 48.125 48.1257 48.125H6.87565C6.26786 48.125 5.68497 47.8835 5.2552 47.4537C4.82543 47.024 4.58398 46.4411 4.58398 45.8333V9.16663C4.58398 8.55884 4.82543 7.97594 5.2552 7.54617C5.68497 7.1164 6.26786 6.87496 6.87565 6.87496H16.0423V2.29163H20.6257V6.87496H34.3757V2.29163H38.959V6.87496ZM45.834 25.2083H9.16732V43.5416H45.834V25.2083ZM34.3757 11.4583H20.6257V16.0416H16.0423V11.4583H9.16732V20.625H45.834V11.4583H38.959V16.0416H34.3757V11.4583ZM13.7507 29.7916H18.334V34.375H13.7507V29.7916ZM25.209 29.7916H29.7923V34.375H25.209V29.7916ZM36.6673 29.7916H41.2507V34.375H36.6673V29.7916Z" fill="black"/>
</svg>
