<svg width="53" height="53" viewBox="0 0 53 53" fill="none" xmlns="http://www.w3.org/2000/svg">
<path d="M40.5309 35.3335C39.5393 35.3373 38.5587 35.5414 37.648 35.9335C36.7372 36.3257 35.9151 36.8978 35.2309 37.6155L17.2845 28.6349C17.726 27.2963 17.726 25.8513 17.2845 24.5127L35.2603 15.3702C36.5479 16.727 38.294 17.5567 40.1592 17.6979C42.0243 17.839 43.8754 17.2817 45.3525 16.1341C46.8297 14.9866 47.8274 13.3308 48.1517 11.4886C48.476 9.64638 48.1038 7.74941 47.1074 6.16635C46.1111 4.5833 44.5617 3.42727 42.7604 2.92295C40.9592 2.41862 39.0347 2.60205 37.3612 3.43756C35.6876 4.27307 34.3845 5.70099 33.7051 7.44376C33.0257 9.18654 33.0186 11.1197 33.6851 12.8674L15.8859 21.9216C14.9246 20.7459 13.6232 19.8964 12.1602 19.4894C10.6971 19.0824 9.14396 19.1378 7.71364 19.6481C6.28333 20.1585 5.04586 21.0987 4.17086 22.3399C3.29586 23.5811 2.82617 25.0625 2.82617 26.5812C2.82617 28.0998 3.29586 29.5813 4.17086 30.8225C5.04586 32.0637 6.28333 33.0039 7.71364 33.5142C9.14396 34.0245 10.6971 34.08 12.1602 33.673C13.6232 33.266 14.9246 32.4164 15.8859 31.2408L33.6409 40.1771C33.3409 40.9827 33.1864 41.8351 33.1845 42.6946C33.1845 44.1505 33.6162 45.5737 34.4251 46.7843C35.2339 47.9948 36.3836 48.9383 37.7286 49.4954C39.0737 50.0526 40.5538 50.1983 41.9817 49.9143C43.4096 49.6303 44.7212 48.9292 45.7507 47.8997C46.7802 46.8703 47.4813 45.5586 47.7653 44.1307C48.0493 42.7028 47.9035 41.2227 47.3464 39.8777C46.7893 38.5326 45.8458 37.383 44.6352 36.5741C43.4247 35.7653 42.0015 35.3335 40.5456 35.3335H40.5309Z" fill="black"/>
</svg>
