<svg width="54" height="54" viewBox="0 0 54 54" fill="none" xmlns="http://www.w3.org/2000/svg">
<path d="M29.1145 26.9998L40.0495 16.0648C40.2952 15.7778 40.4236 15.4087 40.409 15.0312C40.3945 14.6537 40.238 14.2956 39.9708 14.0284C39.7037 13.7613 39.3456 13.6048 38.9681 13.5902C38.5905 13.5756 38.2214 13.704 37.9345 13.9498L26.9995 24.8848L16.0645 13.9348C15.7775 13.689 15.4084 13.5606 15.0309 13.5752C14.6534 13.5898 14.2953 13.7463 14.0281 14.0134C13.761 14.2806 13.6045 14.6387 13.5899 15.0162C13.5753 15.3937 13.7037 15.7628 13.9495 16.0498L24.8845 26.9998L13.9345 37.9348C13.7774 38.0693 13.6499 38.2347 13.5599 38.4208C13.4698 38.6069 13.4193 38.8096 13.4113 39.0162C13.4033 39.2228 13.4381 39.4288 13.5135 39.6213C13.5889 39.8138 13.7033 39.9886 13.8495 40.1348C13.9957 40.2809 14.1705 40.3953 14.363 40.4707C14.5555 40.5461 14.7615 40.581 14.9681 40.573C15.1746 40.565 15.3773 40.5144 15.5634 40.4244C15.7495 40.3343 15.915 40.2068 16.0495 40.0498L26.9995 29.1148L37.9345 40.0498C38.2214 40.2955 38.5905 40.4239 38.9681 40.4093C39.3456 40.3948 39.7037 40.2383 39.9708 39.9711C40.238 39.704 40.3945 39.3459 40.409 38.9684C40.4236 38.5908 40.2952 38.2217 40.0495 37.9348L29.1145 26.9998Z" fill="black"/>
</svg>
