<svg width="57" height="57" viewBox="0 0 57 57" fill="none" xmlns="http://www.w3.org/2000/svg">
<path d="M49.875 49.875H7.125C6.49511 49.875 5.89102 49.6248 5.44562 49.1794C5.00022 48.734 4.75 48.1299 4.75 47.5V29.6566C4.74996 29.3173 4.82265 28.9818 4.96317 28.6729C5.1037 28.364 5.30878 28.0888 5.56462 27.8659L14.25 20.292V9.5C14.25 8.87011 14.5002 8.26602 14.9456 7.82062C15.391 7.37522 15.9951 7.125 16.625 7.125H49.875C50.5049 7.125 51.109 7.37522 51.5544 7.82062C51.9998 8.26602 52.25 8.87011 52.25 9.5V47.5C52.25 48.1299 51.9998 48.734 51.5544 49.1794C51.109 49.6248 50.5049 49.875 49.875 49.875ZM21.375 45.125H28.5V30.7373L19 22.4533L9.5 30.7373V45.125H16.625V35.625H21.375V45.125ZM33.25 45.125H47.5V11.875H19V16.9266C19.5557 16.9266 20.1139 17.1214 20.5604 17.5133L32.4354 27.8659C32.6912 28.0888 32.8963 28.364 33.0368 28.6729C33.1773 28.9818 33.25 29.3173 33.25 29.6566V45.125ZM38 26.125H42.75V30.875H38V26.125ZM38 35.625H42.75V40.375H38V35.625ZM38 16.625H42.75V21.375H38V16.625ZM28.5 16.625H33.25V21.375H28.5V16.625Z" fill="black"/>
</svg>
