<svg width="59" height="61" viewBox="0 0 59 61" fill="none" xmlns="http://www.w3.org/2000/svg">
<path d="M29.4994 55.9167C15.922 55.9167 4.91602 44.5377 4.91602 30.5C4.91602 16.4624 15.922 5.08337 29.4994 5.08337C43.0767 5.08337 54.0827 16.4624 54.0827 30.5C54.0827 44.5377 43.0767 55.9167 29.4994 55.9167ZM29.4994 50.8334C34.7153 50.8334 39.7176 48.6911 43.4058 44.8779C47.094 41.0646 49.166 35.8928 49.166 30.5C49.166 25.1073 47.094 19.9354 43.4058 16.1222C39.7176 12.309 34.7153 10.1667 29.4994 10.1667C24.2834 10.1667 19.2811 12.309 15.5929 16.1222C11.9047 19.9354 9.83268 25.1073 9.83268 30.5C9.83268 35.8928 11.9047 41.0646 15.5929 44.8779C19.2811 48.6911 24.2834 50.8334 29.4994 50.8334ZM40.5619 19.0625L34.416 35.5834L18.4368 41.9375L24.5827 25.4167L40.5619 19.0625ZM29.4994 33.0417C30.1513 33.0417 30.7766 32.7739 31.2377 32.2973C31.6987 31.8206 31.9577 31.1741 31.9577 30.5C31.9577 29.8259 31.6987 29.1795 31.2377 28.7028C30.7766 28.2262 30.1513 27.9584 29.4994 27.9584C28.8474 27.9584 28.2221 28.2262 27.761 28.7028C27.3 29.1795 27.041 29.8259 27.041 30.5C27.041 31.1741 27.3 31.8206 27.761 32.2973C28.2221 32.7739 28.8474 33.0417 29.4994 33.0417Z" fill="black"/>
</svg>
