<svg width="60" height="61" viewBox="0 0 60 61" fill="none" xmlns="http://www.w3.org/2000/svg">
<path d="M30 55.9167C16.1925 55.9167 5 44.5377 5 30.5C5 16.4624 16.1925 5.08337 30 5.08337C43.8075 5.08337 55 16.4624 55 30.5C55 44.5377 43.8075 55.9167 30 55.9167ZM30 50.8334C35.3043 50.8334 40.3914 48.6911 44.1421 44.8779C47.8929 41.0646 50 35.8928 50 30.5C50 25.1073 47.8929 19.9354 44.1421 16.1222C40.3914 12.309 35.3043 10.1667 30 10.1667C24.6957 10.1667 19.6086 12.309 15.8579 16.1222C12.1071 19.9354 10 25.1073 10 30.5C10 35.8928 12.1071 41.0646 15.8579 44.8779C19.6086 48.6911 24.6957 50.8334 30 50.8334ZM17.5 29.2292L40 20.3334L31.25 43.2135L27.5 33.0417L17.5 29.2292Z" fill="black"/>
</svg>
