<svg width="55" height="55" viewBox="0 0 55 55" fill="none" xmlns="http://www.w3.org/2000/svg">
<path d="M45.8333 50.4167H13.75C11.9266 50.4167 10.178 49.6924 8.88864 48.4031C7.59933 47.1138 6.875 45.3651 6.875 43.5417V11.4584C6.875 9.63501 7.59933 7.88633 8.88864 6.59702C10.178 5.3077 11.9266 4.58337 13.75 4.58337H45.8333C46.4411 4.58337 47.024 4.82482 47.4538 5.25459C47.8836 5.68436 48.125 6.26725 48.125 6.87504V48.125C48.125 48.7328 47.8836 49.3157 47.4538 49.7455C47.024 50.1753 46.4411 50.4167 45.8333 50.4167ZM43.5417 45.8334V41.25H13.75C13.1422 41.25 12.5593 41.4915 12.1295 41.9213C11.6998 42.351 11.4583 42.9339 11.4583 43.5417C11.4583 44.1495 11.6998 44.7324 12.1295 45.1622C12.5593 45.5919 13.1422 45.8334 13.75 45.8334H43.5417ZM11.4583 37.0563C12.1756 36.8042 12.9479 36.6667 13.75 36.6667H43.5417V9.16671H13.75C13.1422 9.16671 12.5593 9.40815 12.1295 9.83792C11.6998 10.2677 11.4583 10.8506 11.4583 11.4584V37.0563ZM27.5 22.9167C26.2844 22.9167 25.1186 22.4338 24.2591 21.5743C23.3996 20.7147 22.9167 19.549 22.9167 18.3334C22.9167 17.1178 23.3996 15.952 24.2591 15.0925C25.1186 14.2329 26.2844 13.75 27.5 13.75C28.7156 13.75 29.8814 14.2329 30.7409 15.0925C31.6004 15.952 32.0833 17.1178 32.0833 18.3334C32.0833 19.549 31.6004 20.7147 30.7409 21.5743C29.8814 22.4338 28.7156 22.9167 27.5 22.9167ZM20.625 32.0834C20.625 30.26 21.3493 28.5113 22.6386 27.222C23.928 25.9327 25.6766 25.2084 27.5 25.2084C29.3234 25.2084 31.072 25.9327 32.3614 27.222C33.6507 28.5113 34.375 30.26 34.375 32.0834H20.625Z" fill="black"/>
</svg>
