<svg width="67" height="67" viewBox="0 0 67 67" fill="none" xmlns="http://www.w3.org/2000/svg">
<path d="M33.5007 5.58337C48.919 5.58337 61.4173 18.0817 61.4173 33.5C61.4173 48.9184 48.919 61.4167 33.5007 61.4167C18.0823 61.4167 5.58398 48.9184 5.58398 33.5C5.58398 18.0817 18.0823 5.58337 33.5007 5.58337ZM33.5007 11.1667C21.1671 11.1667 11.1673 21.1665 11.1673 33.5C11.1673 45.8336 21.1671 55.8334 33.5007 55.8334C45.8342 55.8334 55.834 45.8336 55.834 33.5C55.834 21.1665 45.8342 11.1667 33.5007 11.1667ZM44.2011 20.4825C44.8627 20.0191 45.7617 20.0972 46.3312 20.6695C46.9007 21.239 46.9732 22.138 46.507 22.7912C40.4212 31.2946 37.0712 35.8506 36.4626 36.462C34.8267 38.0951 32.1746 38.0951 30.5387 36.462C28.9056 34.8261 28.9056 32.174 30.5387 30.5381C31.5828 29.4968 36.136 26.144 44.2011 20.4825ZM48.8548 30.7084C50.3958 30.7084 51.6465 31.959 51.6465 33.5C51.6465 35.041 50.3958 36.2917 48.8548 36.2917C47.3138 36.2917 46.0632 35.041 46.0632 33.5C46.0632 31.959 47.3138 30.7084 48.8548 30.7084ZM18.1465 30.7084C19.6875 30.7084 20.9382 31.959 20.9382 33.5C20.9382 35.041 19.6875 36.2917 18.1465 36.2917C16.6055 36.2917 15.3548 35.041 15.3548 33.5C15.3548 31.959 16.6055 30.7084 18.1465 30.7084ZM24.6176 20.6695C25.7063 21.7583 25.7063 23.5254 24.6176 24.617C23.5288 25.7057 21.7589 25.7057 20.6702 24.617C19.5814 23.5282 19.5814 21.7583 20.6702 20.6695C21.7589 19.5808 23.526 19.5808 24.6176 20.6695ZM33.5007 15.3542C35.0417 15.3542 36.2923 16.6049 36.2923 18.1459C36.2923 19.6869 35.0417 20.9375 33.5007 20.9375C31.9597 20.9375 30.709 19.6869 30.709 18.1459C30.709 16.6049 31.9597 15.3542 33.5007 15.3542Z" fill="black"/>
</svg>
