<svg width="56" height="55" viewBox="0 0 56 55" fill="none" xmlns="http://www.w3.org/2000/svg">
<path d="M46.6667 50.4167H9.33333C8.71449 50.4167 8.121 50.1753 7.68342 49.7455C7.24583 49.3157 7 48.7328 7 48.125V6.87504C7 6.26725 7.24583 5.68436 7.68342 5.25459C8.121 4.82482 8.71449 4.58337 9.33333 4.58337H46.6667C47.2855 4.58337 47.879 4.82482 48.3166 5.25459C48.7542 5.68436 49 6.26725 49 6.87504V48.125C49 48.7328 48.7542 49.3157 48.3166 49.7455C47.879 50.1753 47.2855 50.4167 46.6667 50.4167ZM44.3333 45.8334V9.16671H11.6667V45.8334H44.3333ZM18.6667 16.0417H37.3333V20.625H18.6667V16.0417ZM18.6667 25.2084H37.3333V29.7917H18.6667V25.2084ZM18.6667 34.375H37.3333V38.9584H18.6667V34.375Z" fill="black"/>
</svg>
