<svg width="60" height="60" viewBox="0 0 60 60" fill="none" xmlns="http://www.w3.org/2000/svg">
<path d="M47.5 5H12.5C11.1739 5 9.90215 5.52678 8.96447 6.46447C8.02678 7.40215 7.5 8.67392 7.5 10V45C7.5 46.3261 8.02678 47.5979 8.96447 48.5355C9.90215 49.4732 11.1739 50 12.5 50H22.5L30 57.5L37.5 50H47.5C50.25 50 52.5 47.75 52.5 45V10C52.5 7.25 50.25 5 47.5 5ZM47.5 45H35.425L33.95 46.475L30 50.425L26.025 46.45L24.575 45H12.5V10H47.5V45ZM27.5 37.5H32.5V42.5H27.5V37.5ZM30 17.5C32.75 17.5 35 19.75 35 22.5C35 27.5 27.5 26.875 27.5 35H32.5C32.5 29.375 40 28.75 40 22.5C40 16.975 35.525 12.5 30 12.5C24.475 12.5 20 16.975 20 22.5H25C25 19.75 27.25 17.5 30 17.5Z" fill="black"/>
</svg>
