<svg width="55" height="55" viewBox="0 0 55 55" fill="none" xmlns="http://www.w3.org/2000/svg">
<path d="M45.834 6.875L50.4173 16.0417V45.8333C50.4173 46.4411 50.1759 47.024 49.7461 47.4538C49.3163 47.8836 48.7334 48.125 48.1257 48.125H6.87565C6.26786 48.125 5.68497 47.8836 5.2552 47.4538C4.82543 47.024 4.58398 46.4411 4.58398 45.8333V16.0508L9.16732 6.875H45.834ZM45.834 20.625H9.16732V43.5417H45.834V20.625ZM27.5007 22.9167L36.6673 32.0833H29.7923V41.25H25.209V32.0833H18.334L27.5007 22.9167ZM43.0015 11.4583H11.9998L9.71044 16.0417H45.2932L43.0015 11.4583Z" fill="black"/>
</svg>
