<svg width="54" height="54" viewBox="0 0 54 54" fill="none" xmlns="http://www.w3.org/2000/svg">
<path d="M25.6005 32.625H42.75C43.3467 32.625 43.919 32.3879 44.341 31.966C44.7629 31.544 45 30.9717 45 30.375V12.375C45 11.7783 44.7629 11.206 44.341 10.784C43.919 10.3621 43.3467 10.125 42.75 10.125H11.25C10.6533 10.125 10.081 10.3621 9.65901 10.784C9.23705 11.206 9 11.7783 9 12.375V30.375C9 30.9717 9.23705 31.544 9.65901 31.966C10.081 32.3879 10.6533 32.625 11.25 32.625C11.8467 32.625 12.419 32.8621 12.841 33.284C13.2629 33.706 13.5 34.2783 13.5 34.875V41.6543L25.6005 32.625ZM11.25 5.625H42.75C44.5402 5.625 46.2571 6.33616 47.523 7.60203C48.7888 8.8679 49.5 10.5848 49.5 12.375V30.375C49.5 32.1652 48.7888 33.8821 47.523 35.148C46.2571 36.4138 44.5402 37.125 42.75 37.125H27.0945L12.5955 47.943C12.2609 48.1926 11.8634 48.3443 11.4476 48.3809C11.0317 48.4176 10.6139 48.3378 10.2408 48.1506C9.86763 47.9633 9.55397 47.6759 9.33485 47.3206C9.11573 46.9653 8.99979 46.556 9 46.1385V37.125C7.80653 37.125 6.66193 36.6509 5.81802 35.807C4.97411 34.9631 4.5 33.8185 4.5 32.625V12.375C4.5 10.5848 5.21116 8.8679 6.47703 7.60203C7.7429 6.33616 9.45979 5.625 11.25 5.625Z" fill="black"/>
</svg>
