<svg width="56" height="56" viewBox="0 0 56 56" fill="none" xmlns="http://www.w3.org/2000/svg">
<path d="M21 3.5C14.2537 3.5 8.75 9.00375 8.75 15.75C8.75 19.9675 10.9025 23.7125 14.1645 25.9227C7.92225 28.6003 3.5 34.7952 3.5 42H7C7 34.2475 13.2475 28 21 28C23.4062 28 25.648 28.63 27.6168 29.6957C25.6016 32.1877 24.5015 35.2952 24.5 38.5C24.5 46.2105 30.7895 52.5 38.5 52.5C46.2105 52.5 52.5 46.2105 52.5 38.5C52.5 30.7895 46.2105 24.5 38.5 24.5C35.5507 24.5025 32.6783 25.4406 30.296 27.1793C29.5098 26.6965 28.6871 26.2758 27.8355 25.921C29.5004 24.7971 30.8644 23.2823 31.8083 21.5092C32.7522 19.7361 33.2472 17.7587 33.25 15.75C33.25 9.00375 27.7463 3.5 21 3.5ZM21 7C25.8528 7 29.75 10.8973 29.75 15.75C29.75 20.6028 25.8528 24.5 21 24.5C16.1473 24.5 12.25 20.6028 12.25 15.75C12.25 10.8973 16.1473 7 21 7ZM38.5 28C44.317 28 49 32.683 49 38.5C49 44.317 44.317 49 38.5 49C32.683 49 28 44.317 28 38.5C28 32.683 32.683 28 38.5 28ZM44.2417 33.7418L38.5 39.4852L34.5082 35.4918L31.9918 38.0083L37.2417 43.2583L38.5 44.4605L39.7583 43.2583L46.7583 36.2583L44.2417 33.7418Z" fill="black"/>
</svg>
