<svg width="51" height="52" viewBox="0 0 51 52" fill="none" xmlns="http://www.w3.org/2000/svg">
<path d="M37.5211 32.1273L34.5164 29.0636L37.5211 26C38.3104 25.1952 38.9366 24.2397 39.3637 23.1882C39.7909 22.1367 40.0108 21.0097 40.0108 19.8716C40.0108 18.7334 39.7909 17.6064 39.3637 16.5549C38.9366 15.5034 38.3104 14.5479 37.5211 13.7431C36.7318 12.9383 35.7947 12.2999 34.7635 11.8644C33.7322 11.4288 32.6268 11.2047 31.5106 11.2047C30.3943 11.2047 29.289 11.4288 28.2577 11.8644C27.2264 12.2999 26.2893 12.9383 25.5 13.7431L22.4952 16.8068L19.4905 13.7431L22.4952 10.6795C24.8929 8.27429 28.1256 6.93255 31.4891 6.94652C34.8526 6.96048 38.0744 8.32902 40.4528 10.754C42.8311 13.179 44.1733 16.464 44.187 19.8935C44.2007 23.3229 42.8848 26.619 40.5259 29.0636L37.5211 32.1273ZM31.5095 38.2568L28.5047 41.3205C27.3244 42.5438 25.9181 43.5167 24.3671 44.1831C22.8161 44.8495 21.151 45.1961 19.4679 45.2031C17.7849 45.2101 16.1171 44.8773 14.5608 44.2238C13.0045 43.5703 11.5905 42.6091 10.4004 41.3956C9.21028 40.1822 8.26757 38.7405 7.62664 37.1537C6.98572 35.5669 6.65927 33.8664 6.66612 32.1503C6.67297 30.4342 7.013 28.7365 7.66657 27.1551C8.32015 25.5737 9.27435 24.1398 10.4741 22.9363L13.4789 19.8726L16.4836 22.9363L13.4789 26C12.6896 26.8048 12.0634 27.7602 11.6363 28.8117C11.2091 29.8632 10.9892 30.9902 10.9892 32.1284C10.9892 33.2665 11.2091 34.3935 11.6363 35.4451C12.0634 36.4966 12.6896 37.452 13.4789 38.2568C14.2682 39.0616 15.2052 39.7 16.2365 40.1355C17.2678 40.5711 18.3732 40.7953 19.4894 40.7953C20.6057 40.7953 21.711 40.5711 22.7423 40.1355C23.7736 39.7 24.7107 39.0616 25.5 38.2568L28.5047 35.1931L31.5095 38.2568ZM31.5095 16.8068L34.5164 19.8726L19.4905 35.191L16.4836 32.1273L31.5095 16.809V16.8068Z" fill="black"/>
</svg>
