<svg width="59" height="60" viewBox="0 0 59 60" fill="none" xmlns="http://www.w3.org/2000/svg">
<path d="M12.2923 55C11.6403 55 11.015 54.7366 10.554 54.2678C10.093 53.7989 9.83398 53.163 9.83398 52.5V7.5C9.83398 6.83696 10.093 6.20107 10.554 5.73223C11.015 5.26339 11.6403 5 12.2923 5H46.709C47.361 5 47.9863 5.26339 48.4473 5.73223C48.9083 6.20107 49.1673 6.83696 49.1673 7.5V15H44.2506V10H14.7507V50H44.2506V45H49.1673V52.5C49.1673 53.163 48.9083 53.7989 48.4473 54.2678C47.9863 54.7366 47.361 55 46.709 55H12.2923ZM44.2506 40V32.5H27.0423V27.5H44.2506V20L56.5423 30L44.2506 40Z" fill="black"/>
</svg>
