<svg width="67" height="67" viewBox="0 0 67 67" fill="none" xmlns="http://www.w3.org/2000/svg">
<path d="M26.1468 29.8206C28.7663 34.4226 32.5774 38.2337 37.1794 40.8532L39.6472 37.3972C40.0441 36.8414 40.6309 36.4505 41.2966 36.2982C41.9623 36.1459 42.6607 36.2429 43.2597 36.5708C47.208 38.7286 51.5682 40.0263 56.0539 40.3787C56.754 40.4341 57.4074 40.7514 57.8839 41.2673C58.3605 41.7832 58.6251 42.4597 58.625 43.162V55.6184C58.6251 56.3096 58.3689 56.9763 57.9058 57.4894C57.4427 58.0025 56.8057 58.3256 56.1181 58.3961C54.6385 58.5496 53.1478 58.625 51.6458 58.625C27.7492 58.625 8.375 39.2508 8.375 15.3542C8.375 13.8523 8.45038 12.3615 8.60392 10.8819C8.67442 10.1943 8.9975 9.55733 9.51062 9.09423C10.0237 8.63113 10.6904 8.37485 11.3816 8.375H23.838C24.5403 8.37491 25.2168 8.63951 25.7327 9.11605C26.2486 9.59259 26.5659 10.246 26.6213 10.9461C26.9737 15.4318 28.2714 19.792 30.4292 23.7403C30.7571 24.3393 30.8541 25.0377 30.7018 25.7034C30.5495 26.3691 30.1586 26.9559 29.6028 27.3528L26.1468 29.8206ZM19.1062 27.9865L24.4103 24.1982C22.905 20.9489 21.8737 17.5005 21.3479 13.9583H13.9863C13.9695 14.4218 13.9611 14.888 13.9611 15.3542C13.9583 36.1688 30.8312 53.0417 51.6458 53.0417C52.112 53.0417 52.5783 53.0333 53.0417 53.0138V45.6521C49.4995 45.1263 46.0511 44.095 42.8018 42.5897L39.0135 47.8938C37.4883 47.3012 36.0069 46.6016 34.5804 45.8001L34.4185 45.708C28.9428 42.5917 24.4083 38.0572 21.292 32.5815L21.1999 32.4196C20.3984 30.9931 19.6988 29.5117 19.1062 27.9865Z" fill="black"/>
</svg>
