<svg width="55" height="55" viewBox="0 0 55 55" fill="none" xmlns="http://www.w3.org/2000/svg">
<path d="M27.5007 50.4167C14.8438 50.4167 4.58398 40.1569 4.58398 27.5C4.58398 17.238 11.3284 8.55254 20.6257 5.63296V10.5005C16.6861 12.1001 13.4248 15.019 11.3995 18.7576C9.3743 22.4962 8.711 26.8224 9.52311 30.9961C10.3352 35.1698 12.5723 38.9316 15.8516 41.6381C19.1309 44.3446 23.2487 45.8276 27.5007 45.8334C31.1531 45.8333 34.7223 44.7426 37.7509 42.7012C40.7796 40.6598 43.1297 37.7606 44.5002 34.375H49.3677C46.4482 43.6723 37.7627 50.4167 27.5007 50.4167ZM50.3027 29.7917H25.209V4.69796C25.9629 4.62233 26.7284 4.58337 27.5007 4.58337C40.1575 4.58337 50.4173 14.8432 50.4173 27.5C50.4173 28.2723 50.3784 29.0378 50.3027 29.7917ZM29.7923 9.30879V25.2084H45.6919C45.1818 21.1696 43.3426 17.4152 40.4641 14.5366C37.5855 11.6581 33.8311 9.81888 29.7923 9.30879Z" fill="black"/>
</svg>
