<svg width="60" height="60" viewBox="0 0 60 60" fill="none" xmlns="http://www.w3.org/2000/svg">
<path d="M8.35125 42.5C7.29443 40.6725 6.47291 38.7187 5.90625 36.685C7.13952 36.0578 8.17524 35.1016 8.89882 33.9223C9.62241 32.743 10.0057 31.3864 10.0062 30.0028C10.0067 28.6192 9.62446 27.2624 8.90176 26.0825C8.17905 24.9027 7.14405 23.9457 5.91125 23.3175C7.04134 19.2313 9.19307 15.4999 12.1637 12.475C13.324 13.2294 14.6703 13.6479 16.0537 13.6845C17.4371 13.721 18.8036 13.3741 20.0021 12.6821C21.2005 11.9901 22.1841 10.98 22.8441 9.76365C23.504 8.54725 23.8145 7.17199 23.7413 5.79005C27.8465 4.7291 32.1543 4.73082 36.2588 5.79505C36.1861 7.17696 36.4973 8.55202 37.1577 9.76807C37.8181 10.9841 38.8021 11.9937 40.0008 12.6852C41.1995 13.3767 42.5661 13.723 43.9494 13.6859C45.3328 13.6488 46.6788 13.2297 47.8388 12.475C49.2863 13.95 50.5713 15.6275 51.6513 17.5C52.7337 19.3725 53.5438 21.325 54.0963 23.315C52.863 23.9423 51.8273 24.8985 51.1037 26.0778C50.3801 27.2571 49.9968 28.6136 49.9963 29.9973C49.9958 31.3809 50.378 32.7377 51.1007 33.9175C51.8235 35.0974 52.8585 36.0544 54.0913 36.6825C52.9612 40.7688 50.8094 44.5002 47.8388 47.525C46.6785 46.7707 45.3322 46.3521 43.9488 46.3156C42.5654 46.279 41.1989 46.626 40.0004 47.318C38.802 48.01 37.8184 49.02 37.1584 50.2364C36.4985 51.4528 36.188 52.8281 36.2612 54.21C32.156 55.271 27.8482 55.2693 23.7437 54.205C23.8164 52.8231 23.5052 51.4481 22.8448 50.232C22.1844 49.016 21.2004 48.0064 20.0017 47.3149C18.803 46.6234 17.4364 46.2771 16.0531 46.3142C14.6697 46.3513 13.3237 46.7703 12.1637 47.525C10.6862 46.0174 9.40524 44.329 8.35125 42.5ZM22.5012 42.99C25.1653 44.5266 27.1684 46.9926 28.1263 49.915C29.3738 50.0325 30.6262 50.035 31.8737 49.9175C32.8323 46.9947 34.8362 44.5286 37.5013 42.9925C40.1643 41.4518 43.3026 40.9487 46.3138 41.58C47.0387 40.56 47.6638 39.4725 48.1838 38.335C46.1323 36.0436 44.999 33.0756 45.0013 30C45.0013 26.85 46.1763 23.9075 48.1838 21.665C47.6601 20.5279 47.0324 19.4416 46.3088 18.42C43.2995 19.0508 40.1632 18.5487 37.5013 17.01C34.8372 15.4735 32.8341 13.0075 31.8763 10.085C30.6288 9.96755 29.3762 9.96505 28.1287 10.0825C27.1702 13.0054 25.1663 15.4714 22.5012 17.0075C19.8382 18.5483 16.6999 19.0513 13.6887 18.42C12.9652 19.4408 12.3391 20.5272 11.8188 21.665C13.8702 23.9564 15.0035 26.9245 15.0013 30C15.0013 33.15 13.8263 36.0925 11.8188 38.335C12.3424 39.4722 12.9701 40.5585 13.6938 41.58C16.703 40.9493 19.8393 41.4514 22.5012 42.99ZM30.0013 37.5C28.0121 37.5 26.1045 36.7099 24.6979 35.3033C23.2914 33.8968 22.5012 31.9892 22.5012 30C22.5012 28.0109 23.2914 26.1033 24.6979 24.6967C26.1045 23.2902 28.0121 22.5 30.0013 22.5C31.9904 22.5 33.898 23.2902 35.3046 24.6967C36.7111 26.1033 37.5013 28.0109 37.5013 30C37.5013 31.9892 36.7111 33.8968 35.3046 35.3033C33.898 36.7099 31.9904 37.5 30.0013 37.5ZM30.0013 32.5C30.6643 32.5 31.3002 32.2367 31.769 31.7678C32.2379 31.299 32.5013 30.6631 32.5013 30C32.5013 29.337 32.2379 28.7011 31.769 28.2323C31.3002 27.7634 30.6643 27.5 30.0013 27.5C29.3382 27.5 28.7023 27.7634 28.2335 28.2323C27.7646 28.7011 27.5013 29.337 27.5013 30C27.5013 30.6631 27.7646 31.299 28.2335 31.7678C28.7023 32.2367 29.3382 32.5 30.0013 32.5Z" fill="black"/>
</svg>
