<svg width="60" height="60" viewBox="0 0 60 60" fill="none" xmlns="http://www.w3.org/2000/svg">
<path d="M32.8005 42.5575L22.303 36.8325C20.9325 38.2977 19.153 39.3167 17.1957 39.7572C15.2384 40.1977 13.1939 40.0393 11.3278 39.3026C9.46175 38.5659 7.86042 37.2849 6.73193 35.6261C5.60345 33.9674 5 32.0075 5 30.0013C5 27.995 5.60345 26.0352 6.73193 24.3764C7.86042 22.7176 9.46175 21.4366 11.3278 20.6999C13.1939 19.9632 15.2384 19.8048 17.1957 20.2453C19.153 20.6858 20.9325 21.7049 22.303 23.17L32.803 17.445C32.2069 15.0852 32.4919 12.589 33.6046 10.4243C34.7173 8.25956 36.5813 6.57497 38.8472 5.68627C41.1131 4.79758 43.6253 4.76578 45.913 5.59686C48.2006 6.42793 50.1067 8.06481 51.2738 10.2007C52.4409 12.3365 52.789 14.8247 52.2528 17.1989C51.7166 19.573 50.3329 21.6701 48.3611 23.097C46.3893 24.524 43.9648 25.1828 41.542 24.95C39.1192 24.7172 36.8645 23.6088 35.2005 21.8325L24.7005 27.5575C25.1035 29.1609 25.1035 30.8391 24.7005 32.4425L35.198 38.1675C36.862 36.3912 39.1167 35.2828 41.5395 35.05C43.9623 34.8172 46.3868 35.4761 48.3586 36.903C50.3304 38.3299 51.7141 40.427 52.2503 42.8012C52.7865 45.1753 52.4384 47.6635 51.2713 49.7994C50.1042 51.9352 48.1981 53.5721 45.9105 54.4032C43.6228 55.2343 41.1106 55.2025 38.8447 54.3138C36.5788 53.4251 34.7148 51.7405 33.6021 49.5758C32.4894 47.4111 32.2044 44.9148 32.8005 42.555V42.5575ZM15.0005 35C16.3266 35 17.5984 34.4732 18.536 33.5356C19.4737 32.5979 20.0005 31.3261 20.0005 30C20.0005 28.6739 19.4737 27.4022 18.536 26.4645C17.5984 25.5268 16.3266 25 15.0005 25C13.6744 25 12.4027 25.5268 11.465 26.4645C10.5273 27.4022 10.0005 28.6739 10.0005 30C10.0005 31.3261 10.5273 32.5979 11.465 33.5356C12.4027 34.4732 13.6744 35 15.0005 35ZM42.5005 20C43.8266 20 45.0984 19.4732 46.036 18.5356C46.9737 17.5979 47.5005 16.3261 47.5005 15C47.5005 13.6739 46.9737 12.4022 46.036 11.4645C45.0984 10.5268 43.8266 10 42.5005 10C41.1744 10 39.9027 10.5268 38.965 11.4645C38.0273 12.4022 37.5005 13.6739 37.5005 15C37.5005 16.3261 38.0273 17.5979 38.965 18.5356C39.9027 19.4732 41.1744 20 42.5005 20ZM42.5005 50C43.8266 50 45.0984 49.4732 46.036 48.5356C46.9737 47.5979 47.5005 46.3261 47.5005 45C47.5005 43.6739 46.9737 42.4022 46.036 41.4645C45.0984 40.5268 43.8266 40 42.5005 40C41.1744 40 39.9027 40.5268 38.965 41.4645C38.0273 42.4022 37.5005 43.6739 37.5005 45C37.5005 46.3261 38.0273 47.5979 38.965 48.5356C39.9027 49.4732 41.1744 50 42.5005 50Z" fill="black"/>
</svg>
