<svg width="56" height="55" viewBox="0 0 56 55" fill="none" xmlns="http://www.w3.org/2000/svg">
<path d="M49 6.85671V48.1434C48.9951 48.7452 48.7494 49.321 48.3158 49.7464C47.8823 50.1717 47.2958 50.4125 46.683 50.4167H9.317C8.7029 50.4167 8.11391 50.1773 7.67946 49.751C7.245 49.3247 7.00062 48.7465 7 48.1434V6.85671C7.00489 6.25487 7.25064 5.67908 7.68417 5.25372C8.11771 4.82835 8.70422 4.58757 9.317 4.58337H46.683C47.9617 4.58337 49 5.60087 49 6.85671ZM44.3333 9.16671H11.6667V45.8334H44.3333V9.16671ZM26.3503 30.069L36.2507 20.3477L39.55 23.5882L26.3503 36.5521L17.2737 27.6375L20.5753 24.3971L26.3503 30.069Z" fill="black"/>
</svg>
