<svg width="58" height="57" viewBox="0 0 58 57" fill="none" xmlns="http://www.w3.org/2000/svg">
<path d="M29.0007 26.125C32.2054 26.125 35.2788 27.3761 37.5449 29.6031C39.8109 31.8301 41.084 34.8506 41.084 38V52.25H36.2507V38C36.2508 36.1826 35.5442 34.4339 34.2756 33.1116C33.0069 31.7894 31.2721 30.9935 29.426 30.8869L29.0007 30.875C27.1514 30.8749 25.372 31.5693 24.0265 32.816C22.6811 34.0628 21.8712 35.7678 21.7627 37.582L21.7507 38V52.25H16.9173V38C16.9173 34.8506 18.1904 31.8301 20.4564 29.6031C22.7225 27.3761 25.796 26.125 29.0007 26.125ZM13.2923 33.25C13.9666 33.25 14.6215 33.3284 15.2498 33.4732C14.8366 34.6821 14.5919 35.9404 14.5224 37.2139L14.5007 38V38.2043C14.2229 38.1066 13.9339 38.0428 13.6403 38.0143L13.2923 38C12.3912 38 11.5224 38.3299 10.8553 38.9253C10.1882 39.5208 9.77074 40.339 9.68423 41.2205L9.66732 41.5625V52.25H4.83398V41.5625C4.83398 39.3579 5.72513 37.2436 7.31137 35.6847C8.89762 34.1258 11.049 33.25 13.2923 33.25ZM44.709 33.25C46.9523 33.25 49.1037 34.1258 50.6899 35.6847C52.2762 37.2436 53.1673 39.3579 53.1673 41.5625V52.25H48.334V41.5625C48.3339 40.6769 47.9983 39.8231 47.3924 39.1675C46.7866 38.5119 45.954 38.1016 45.057 38.0166L44.709 38C44.2861 38 43.8801 38.0712 43.5007 38.2019V38C43.5007 36.4182 43.2397 34.8982 42.7539 33.478C43.3798 33.3284 44.0347 33.25 44.709 33.25ZM13.2923 19C14.8947 19 16.4314 19.6256 17.5644 20.7391C18.6975 21.8526 19.334 23.3628 19.334 24.9375C19.334 26.5122 18.6975 28.0224 17.5644 29.1359C16.4314 30.2494 14.8947 30.875 13.2923 30.875C11.69 30.875 10.1532 30.2494 9.02021 29.1359C7.88718 28.0224 7.25065 26.5122 7.25065 24.9375C7.25065 23.3628 7.88718 21.8526 9.02021 20.7391C10.1532 19.6256 11.69 19 13.2923 19ZM44.709 19C46.3113 19 47.8481 19.6256 48.9811 20.7391C50.1141 21.8526 50.7507 23.3628 50.7507 24.9375C50.7507 26.5122 50.1141 28.0224 48.9811 29.1359C47.8481 30.2494 46.3113 30.875 44.709 30.875C43.1066 30.875 41.5699 30.2494 40.4369 29.1359C39.3038 28.0224 38.6673 26.5122 38.6673 24.9375C38.6673 23.3628 39.3038 21.8526 40.4369 20.7391C41.5699 19.6256 43.1066 19 44.709 19ZM13.2923 23.75C12.9718 23.75 12.6645 23.8751 12.4379 24.0978C12.2113 24.3205 12.084 24.6226 12.084 24.9375C12.084 25.2524 12.2113 25.5545 12.4379 25.7772C12.6645 25.9999 12.9718 26.125 13.2923 26.125C13.6128 26.125 13.9201 25.9999 14.1467 25.7772C14.3733 25.5545 14.5007 25.2524 14.5007 24.9375C14.5007 24.6226 14.3733 24.3205 14.1467 24.0978C13.9201 23.8751 13.6128 23.75 13.2923 23.75ZM44.709 23.75C44.3885 23.75 44.0812 23.8751 43.8546 24.0978C43.628 24.3205 43.5007 24.6226 43.5007 24.9375C43.5007 25.2524 43.628 25.5545 43.8546 25.7772C44.0812 25.9999 44.3885 26.125 44.709 26.125C45.0295 26.125 45.3368 25.9999 45.5634 25.7772C45.79 25.5545 45.9173 25.2524 45.9173 24.9375C45.9173 24.6226 45.79 24.3205 45.5634 24.0978C45.3368 23.8751 45.0295 23.75 44.709 23.75ZM29.0007 4.75C31.5644 4.75 34.0232 5.75089 35.836 7.53249C37.6489 9.31408 38.6673 11.7304 38.6673 14.25C38.6673 16.7696 37.6489 19.1859 35.836 20.9675C34.0232 22.7491 31.5644 23.75 29.0007 23.75C26.4369 23.75 23.9781 22.7491 22.1653 20.9675C20.3524 19.1859 19.334 16.7696 19.334 14.25C19.334 11.7304 20.3524 9.31408 22.1653 7.53249C23.9781 5.75089 26.4369 4.75 29.0007 4.75ZM29.0007 9.5C27.7188 9.5 26.4894 10.0004 25.583 10.8912C24.6765 11.782 24.1673 12.9902 24.1673 14.25C24.1673 15.5098 24.6765 16.718 25.583 17.6088C26.4894 18.4996 27.7188 19 29.0007 19C30.2825 19 31.5119 18.4996 32.4183 17.6088C33.3248 16.718 33.834 15.5098 33.834 14.25C33.834 12.9902 33.3248 11.782 32.4183 10.8912C31.5119 10.0004 30.2825 9.5 29.0007 9.5Z" fill="black"/>
</svg>
