<svg width="60" height="60" viewBox="0 0 60 60" fill="none" xmlns="http://www.w3.org/2000/svg">
<path d="M20 12.5H40C44.6413 12.5 49.0925 14.3437 52.3744 17.6256C55.6563 20.9075 57.5 25.3587 57.5 30C57.5 34.6413 55.6563 39.0925 52.3744 42.3744C49.0925 45.6563 44.6413 47.5 40 47.5H20C15.3587 47.5 10.9075 45.6563 7.62563 42.3744C4.34374 39.0925 2.5 34.6413 2.5 30C2.5 25.3587 4.34374 20.9075 7.62563 17.6256C10.9075 14.3437 15.3587 12.5 20 12.5ZM40 37.5C41.9891 37.5 43.8968 36.7098 45.3033 35.3033C46.7098 33.8968 47.5 31.9891 47.5 30C47.5 28.0109 46.7098 26.1032 45.3033 24.6967C43.8968 23.2902 41.9891 22.5 40 22.5C38.0109 22.5 36.1032 23.2902 34.6967 24.6967C33.2902 26.1032 32.5 28.0109 32.5 30C32.5 31.9891 33.2902 33.8968 34.6967 35.3033C36.1032 36.7098 38.0109 37.5 40 37.5Z" fill="black"/>
</svg>
