<svg width="58" height="58" viewBox="0 0 58 58" fill="none" xmlns="http://www.w3.org/2000/svg">
<path d="M48.3327 53.1666H43.4993V48.3333C43.4993 46.4105 42.7355 44.5664 41.3759 43.2068C40.0162 41.8471 38.1722 41.0833 36.2493 41.0833H21.7493C19.8265 41.0833 17.9825 41.8471 16.6228 43.2068C15.2632 44.5664 14.4993 46.4105 14.4993 48.3333V53.1666H9.66602V48.3333C9.66602 45.1286 10.9391 42.0552 13.2051 39.7891C15.4712 37.523 18.5446 36.25 21.7493 36.25H36.2493C39.454 36.25 42.5275 37.523 44.7936 39.7891C47.0596 42.0552 48.3327 45.1286 48.3327 48.3333V53.1666ZM28.9993 31.4166C27.0952 31.4166 25.2097 31.0416 23.4504 30.3129C21.6912 29.5842 20.0927 28.5161 18.7463 27.1697C17.3998 25.8232 16.3318 24.2248 15.6031 22.4655C14.8744 20.7063 14.4993 18.8208 14.4993 16.9166C14.4993 15.0125 14.8744 13.1269 15.6031 11.3677C16.3318 9.6085 17.3998 8.01003 18.7463 6.66358C20.0927 5.31713 21.6912 4.24907 23.4504 3.52037C25.2097 2.79168 27.0952 2.41663 28.9993 2.41663C32.845 2.41663 36.5331 3.9443 39.2524 6.66358C41.9717 9.38286 43.4993 13.071 43.4993 16.9166C43.4993 20.7623 41.9717 24.4504 39.2524 27.1697C36.5331 29.889 32.845 31.4166 28.9993 31.4166ZM28.9993 26.5833C31.5631 26.5833 34.0219 25.5648 35.8347 23.752C37.6476 21.9391 38.666 19.4804 38.666 16.9166C38.666 14.3529 37.6476 11.8941 35.8347 10.0813C34.0219 8.26841 31.5631 7.24996 28.9993 7.24996C26.4356 7.24996 23.9768 8.26841 22.164 10.0813C20.3511 11.8941 19.3327 14.3529 19.3327 16.9166C19.3327 19.4804 20.3511 21.9391 22.164 23.752C23.9768 25.5648 26.4356 26.5833 28.9993 26.5833Z" fill="black"/>
</svg>
