<svg width="58" height="58" viewBox="0 0 58 58" fill="none" xmlns="http://www.w3.org/2000/svg">
<path d="M33.8327 34.4423V53.1666H9.66602C9.66527 50.2156 10.3401 47.3036 11.6387 44.6537C12.9374 42.0037 14.8254 39.6863 17.1582 37.8789C19.491 36.0715 22.2065 34.822 25.0968 34.2264C27.9871 33.6307 30.9754 33.7045 33.8327 34.4423ZM28.9993 31.4166C20.9881 31.4166 14.4993 24.9279 14.4993 16.9166C14.4993 8.90538 20.9881 2.41663 28.9993 2.41663C37.0106 2.41663 43.4993 8.90538 43.4993 16.9166C43.4993 24.9279 37.0106 31.4166 28.9993 31.4166ZM43.4993 41.0833V33.8333H48.3327V41.0833H55.5827V45.9166H48.3327V53.1666H43.4993V45.9166H36.2493V41.0833H43.4993Z" fill="black"/>
</svg>
